M48
; DRILL file KiCad 10.0.2 date 2026-05-16T15:08:50
; FORMAT={-:-/ absolute / metric / decimal}
; #@! TF.CreationDate,2026-05-16T15:08:50+02:00
; #@! TF.GenerationSoftware,Kicad,Pcbnew,10.0.2
; #@! TF.FileFunction,Plated,1,2,PTH
FMAT,2
METRIC
; #@! TA.AperFunction,Plated,PTH,ViaDrill
T1C0.300
; #@! TA.AperFunction,Plated,PTH,ComponentDrill
T2C1.000
; #@! TA.AperFunction,Plated,PTH,ComponentDrill
T3C1.100
; #@! TA.AperFunction,Plated,PTH,ComponentDrill
T4C1.500
%
G90
G05
T1
X185.0Y-38.0
X188.0Y-39.0
X193.0Y-108.0
X197.0Y-117.0
X203.0Y-60.0
X204.0Y-61.0
X204.0Y-63.0
X204.0Y-66.0
X204.0Y-69.0
X204.0Y-76.0
X204.0Y-94.0
X204.424Y-58.576
X205.0Y-110.0
X206.0Y-59.0
X206.0Y-61.0
X206.0Y-63.0
X206.0Y-64.0
X206.0Y-68.0
X206.0Y-75.0
X206.0Y-88.0
X206.0Y-92.0
X209.427Y-93.28
X209.71Y-96.0
X211.0Y-63.0
X213.0Y-63.8
X213.0Y-84.0
X214.0Y-110.0
X215.0Y-92.0
X216.0Y-116.0
X218.0Y-118.0
X221.0Y-105.213
X222.613Y-104.613
X222.696Y-58.304
X223.0Y-111.0
X224.0Y-57.0
X224.0Y-84.0
X224.0Y-105.0
X228.466Y-90.466
T2
X180.46Y-33.0
X183.0Y-33.0
X185.54Y-33.0
X188.08Y-33.0
X207.46Y-107.0
X208.22Y-53.14
X208.22Y-55.68
X208.22Y-58.22
X208.22Y-60.76
X208.22Y-63.3
X208.22Y-65.84
X208.22Y-68.38
X208.22Y-70.92
X208.22Y-73.46
X208.22Y-76.0
X208.22Y-78.54
X208.22Y-81.08
X208.22Y-83.62
X208.22Y-86.16
X208.22Y-88.7
X208.22Y-91.24
X208.22Y-93.78
X208.22Y-96.32
X208.22Y-98.86
X208.22Y-101.4
X210.0Y-107.0
X212.54Y-107.0
X215.08Y-107.0
X217.62Y-107.0
X220.16Y-107.0
X222.7Y-107.0
X225.24Y-107.0
X226.0Y-53.14
X226.0Y-55.68
X226.0Y-58.22
X226.0Y-60.76
X226.0Y-63.3
X226.0Y-65.84
X226.0Y-68.38
X226.0Y-70.92
X226.0Y-73.46
X226.0Y-76.0
X226.0Y-78.54
X226.0Y-81.08
X226.0Y-83.62
X226.0Y-86.16
X226.0Y-88.7
X226.0Y-91.24
X226.0Y-93.78
X226.0Y-96.32
X226.0Y-98.86
X226.0Y-101.4
T3
X206.75Y-116.75
X206.75Y-121.25
X213.25Y-116.75
X213.25Y-121.25
X220.75Y-116.75
X220.75Y-121.25
X227.25Y-116.75
X227.25Y-121.25
T4
X144.11Y-72.46
X144.11Y-91.51
X144.11Y-110.56
X150.46Y-69.92
X150.46Y-88.97
X150.46Y-108.02
X163.16Y-72.46
X163.16Y-91.51
X163.16Y-110.56
X169.51Y-69.92
X169.51Y-88.97
X169.51Y-108.02
X182.21Y-72.46
X182.21Y-91.51
X182.21Y-110.56
X188.56Y-69.92
X188.56Y-88.97
X188.56Y-108.02
M30
