M48
; DRILL file KiCad 10.0.2 date 2026-05-16T15:08:50
; FORMAT={-:-/ absolute / metric / decimal}
; #@! TF.CreationDate,2026-05-16T15:08:50+02:00
; #@! TF.GenerationSoftware,Kicad,Pcbnew,10.0.2
; #@! TF.FileFunction,NonPlated,1,2,NPTH
FMAT,2
METRIC
; #@! TA.AperFunction,NonPlated,NPTH,ComponentDrill
T1C1.700
; #@! TA.AperFunction,NonPlated,NPTH,ComponentDrill
T2C3.200
; #@! TA.AperFunction,NonPlated,NPTH,ComponentDrill
T3C4.000
%
G90
G05
T1
X142.84Y-75.0
X142.84Y-94.05
X142.84Y-113.1
X153.0Y-75.0
X153.0Y-94.05
X153.0Y-113.1
X161.89Y-75.0
X161.89Y-94.05
X161.89Y-113.1
X172.05Y-75.0
X172.05Y-94.05
X172.05Y-113.1
X180.94Y-75.0
X180.94Y-94.05
X180.94Y-113.1
X191.1Y-75.0
X191.1Y-94.05
X191.1Y-113.1
T2
X132.0Y-33.0
X132.0Y-124.0
X233.0Y-33.0
X233.0Y-124.0
T3
X147.92Y-75.0
X147.92Y-94.05
X147.92Y-113.1
X166.97Y-75.0
X166.97Y-94.05
X166.97Y-113.1
X186.02Y-75.0
X186.02Y-94.05
X186.02Y-113.1
M30
